# xmcd
#
# Track frame offsets:
# 150
# 9715
# 18620
# 24538
# 28919
# 39305
# 41608
# 45161
# 48447
# 51601
# 54669
# 59188
#
# Disc length: 841 seconds
#
# Revision: 0
# Processed by: cddbd v1.5.1PL0 Copyright (c) Steve Scherf et al.
# Submitted via: Audion 3.0.2 (http://www.panic.com/audion/)
#
DISCID=a703470c
DTITLE=beacon/goosedown - beacon goosedown split
DYEAR=1900
DGENRE=
TTITLE0=b
TTITLE1=b
TTITLE2=b
TTITLE3=b
TTITLE4=b
TTITLE5=g
TTITLE6=g
TTITLE7=g
TTITLE8=g
TTITLE9=g
TTITLE10=g
TTITLE11=g
EXTD=
EXTT0=
EXTT1=
EXTT2=
EXTT3=
EXTT4=
EXTT5=
EXTT6=
EXTT7=
EXTT8=
EXTT9=
EXTT10=
EXTT11=
PLAYORDER=
